<svg xmlns="http://www.w3.org/2000/svg" xmlns:xlink="http://www.w3.org/1999/xlink" width="3480" height="350" viewBox="0 0 3480 350">
  <defs>
    <linearGradient id="linear-gradient" x1="0.5" x2="0.5" y2="1" gradientUnits="objectBoundingBox">
      <stop offset="0" stop-color="#c7f0ff"/>
      <stop offset="1" stop-color="#4ab7ff"/>
    </linearGradient>
    <linearGradient id="linear-gradient-2" x1="0.567" y1="-0.063" x2="0.154" y2="1.07" gradientUnits="objectBoundingBox">
      <stop offset="0" stop-color="#c7f0ff"/>
      <stop offset="1" stop-color="#60b1e4"/>
    </linearGradient>
    <clipPath id="clip-custom_1">
      <rect width="3480" height="350"/>
    </clipPath>
  </defs>
  <g id="custom_1" data-name="custom – 1" clip-path="url(#clip-custom_1)">
    <rect width="3480" height="350" fill="rgba(255,255,255,0)"/>
    <path id="Pfad_1" data-name="Pfad 1" d="M2.247,109.147V-10.758H36.864q66.308,0,66.308,58.448,0,27.761-18.4,44.609T35.443,109.147ZM22.064,6.132V92.34H37.951Q58.939,92.34,70.6,80.8t11.664-32.61q0-42.059-43.564-42.059ZM188.628,109.147H169.814V95.769h-.334q-8.863,15.385-26,15.385-12.626,0-19.775-6.857T116.55,86.153q0-24.249,27.928-28.262L169.9,54.3q0-18.312-17.392-18.312-15.3,0-27.593,10.536V29.545q13.546-8.027,31.272-8.027,32.443,0,32.443,31.941ZM169.9,67.088,151.92,69.6q-8.362,1.087-12.584,4.055t-4.223,10.41A11.4,11.4,0,0,0,139,92.968q3.888,3.47,10.41,3.47a19.209,19.209,0,0,0,14.675-6.229Q169.9,83.979,169.9,74.53Zm87.546,41.139q-5.686,2.843-14.967,2.843-24.918,0-24.918-23.914V38.742h-14.3V23.524h14.3V3.707l19.4-5.519V23.524h20.486V38.742H236.958V81.554q0,7.609,2.759,10.87t9.2,3.261a13.337,13.337,0,0,0,8.529-2.843ZM345.659,71.6H287.295q.334,11.874,7.316,18.312t19.19,6.438A42.316,42.316,0,0,0,338.97,88.16V103.8q-11.706,7.358-30.938,7.358-18.9,0-29.642-11.664T267.645,66.67q0-19.984,11.832-32.569a38.7,38.7,0,0,1,29.391-12.584q17.559,0,27.175,11.288t9.616,31.356Zm-18.73-13.713Q326.845,47.438,322,41.627t-13.379-5.811a18.826,18.826,0,0,0-14.173,6.1q-5.811,6.1-7.149,15.971ZM373.921,5.547a11.663,11.663,0,0,1-8.153-3.094,10.18,10.18,0,0,1-3.386-7.86,10.441,10.441,0,0,1,3.386-7.944,11.491,11.491,0,0,1,8.153-3.177,11.85,11.85,0,0,1,8.362,3.177,10.38,10.38,0,0,1,3.428,7.944,10.236,10.236,0,0,1-3.428,7.734A11.764,11.764,0,0,1,373.921,5.547Zm9.616,103.6h-19.4V23.524h19.4Zm110.373,2.007q-19.817,0-31.649-12T450.43,67.339q0-21.573,12.333-33.7T496,21.517q20.068,0,31.272,11.79T538.478,66q0,20.486-12.083,32.819T493.91,111.154Zm.92-74.168q-11.372,0-17.978,7.944t-6.606,21.907q0,13.462,6.689,21.2t17.894,7.735q11.455,0,17.6-7.609T518.577,66.5q0-14.131-6.146-21.824T494.83,36.986Zm17.225-28.43A10.426,10.426,0,0,1,504.822,5.8a9.051,9.051,0,0,1-3.052-7.024A9.04,9.04,0,0,1,504.7-8.083a9.981,9.981,0,0,1,7.107-2.759,10.66,10.66,0,0,1,7.484,2.8,8.906,8.906,0,0,1,3.052,6.815,9.307,9.307,0,0,1-2.927,6.94A10.134,10.134,0,0,1,512.055,8.557Zm-34.784,0a10.526,10.526,0,0,1-7.442-2.885,9.109,9.109,0,0,1-3.094-6.9A8.98,8.98,0,0,1,469.7-8.083a10.234,10.234,0,0,1,7.233-2.759,10.745,10.745,0,0,1,7.4,2.8,8.8,8.8,0,0,1,3.136,6.815,9.183,9.183,0,0,1-3.01,6.94A10.109,10.109,0,0,1,477.271,8.557ZM604.284-1.811a17.636,17.636,0,0,0-8.947-2.258q-14.131,0-14.131,15.971V23.524h19.9V38.742H581.289v70.4h-19.4v-70.4H547.257V23.524H561.89V9.644q0-13.546,8.863-21.364t22.158-7.818a32.9,32.9,0,0,1,11.372,1.589Zm59.033,0a17.635,17.635,0,0,0-8.947-2.258q-14.131,0-14.131,15.971V23.524h19.9V38.742H640.322v70.4h-19.4v-70.4H606.29V23.524h14.633V9.644q0-13.546,8.863-21.364t22.158-7.818a32.9,32.9,0,0,1,11.372,1.589Zm86.877,110.959h-19.4V60.9q0-24-16.974-24a18.532,18.532,0,0,0-14.633,6.647q-5.77,6.647-5.77,16.765v48.832H673.936V23.524h19.483V37.739h.334q9.616-16.222,27.761-16.222,13.964,0,21.322,9.072T750.194,56.8ZM846.353,71.6H787.988q.335,11.874,7.316,18.312t19.19,6.438a42.316,42.316,0,0,0,25.169-8.194V103.8q-11.706,7.358-30.938,7.358-18.9,0-29.642-11.664T768.339,66.67q0-19.984,11.832-32.569a38.7,38.7,0,0,1,29.391-12.584q17.56,0,27.175,11.288t9.616,31.356Zm-18.73-13.713q-.084-10.452-4.933-16.263t-13.379-5.811a18.826,18.826,0,0,0-14.173,6.1q-5.811,6.1-7.149,15.971ZM941.09,109.147h-19.4V60.9q0-24-16.974-24a18.532,18.532,0,0,0-14.633,6.647q-5.769,6.647-5.769,16.765v48.832H864.832V23.524h19.483V37.739h.334q9.616-16.222,27.761-16.222,13.964,0,21.322,9.072T941.09,56.8Z" transform="translate(1149.822 124.904)" fill="url(#linear-gradient)"/>
    <path id="Differenzmenge_1" data-name="Differenzmenge 1" d="M142,162H20A20,20,0,0,1,0,142V20A20,20,0,0,1,20,0H162V142a20,20,0,0,1-20,20ZM64.8,43.2v13H108v41h13v-54H64.8Z" transform="translate(2166 85)" fill="url(#linear-gradient-2)"/>
  </g>
</svg>
